<svg width="948" height="919" viewBox="0 0 948 919" fill="none" xmlns="http://www.w3.org/2000/svg">
<g filter="url(#filter0_d_104_13)">
<path fill-rule="evenodd" clip-rule="evenodd" d="M938 279.985C938 269.313 938.004 258.639 937.937 247.966C937.882 238.975 937.775 229.986 937.522 220.999C936.977 201.412 935.785 181.657 932.189 162.289C928.542 142.64 922.587 124.354 913.202 106.502C903.976 88.9549 891.925 72.8984 877.545 58.9781C863.169 45.0578 846.59 33.3905 828.471 24.4584C810.024 15.3648 791.127 9.59766 770.823 6.06605C750.827 2.58789 730.429 1.43469 710.21 0.905543C700.927 0.662246 691.644 0.559691 682.358 0.504049C671.335 0.438588 660.311 0.444043 649.288 0.444043L521.297 0H425.57L299.844 0.444043C288.799 0.444043 277.754 0.438588 266.709 0.504049C257.405 0.559691 248.105 0.662246 238.803 0.905543C218.537 1.43469 198.093 2.58898 178.05 6.0715C157.719 9.60203 138.794 15.367 120.322 24.454C102.164 33.3873 85.5492 45.0557 71.1428 58.9781C56.7386 72.8973 44.6646 88.9505 35.4218 106.494C26.0113 124.355 20.0446 142.652 16.389 162.311C12.7896 181.673 11.597 201.421 11.0485 220.999C10.7985 229.987 10.6904 238.976 10.6341 247.966C10.5665 258.64 10 271.9 10 282.573L10.0034 402.683L10 496.412L10.5721 619.074C10.5721 629.761 10.5676 640.449 10.6341 651.137C10.6904 660.14 10.7985 669.14 11.0496 678.14C11.597 697.752 12.7919 717.536 16.3946 736.931C20.0491 756.605 26.0146 774.918 35.4173 792.793C44.6612 810.365 56.7375 826.442 71.1428 840.382C85.5481 854.322 102.158 866.004 120.313 874.95C138.796 884.055 157.73 889.83 178.074 893.366C198.108 896.85 218.545 898.005 238.803 898.534C248.105 898.777 257.406 898.881 266.711 898.936C277.755 899.001 288.799 898.997 299.844 898.997L426.706 899H522.671L649.288 898.996C660.311 898.996 671.335 899.001 682.358 898.936C691.644 898.881 700.927 898.777 710.21 898.534C730.437 898.004 750.841 896.847 770.846 893.362C791.138 889.826 810.026 884.053 828.463 874.953C846.586 866.009 863.168 854.324 877.545 840.382C891.922 826.444 903.973 810.369 913.199 792.801C922.589 774.917 928.544 756.595 932.193 736.908C935.786 717.52 936.977 697.745 937.523 678.14C937.775 669.139 937.882 660.139 937.937 651.137C938.005 640.449 938 629.761 938 619.074C938 619.074 937.993 498.578 937.993 496.412V402.585C937.993 400.985 938 279.985 938 279.985" fill="#1B1B1B"/>
</g>
<mask id="mask0_104_13" style="mask-type:luminance" maskUnits="userSpaceOnUse" x="10" y="0" width="928" height="899">
<path fill-rule="evenodd" clip-rule="evenodd" d="M938 279.985C938 269.313 938.004 258.639 937.937 247.966C937.882 238.975 937.775 229.986 937.522 220.999C936.977 201.412 935.785 181.657 932.189 162.289C928.542 142.64 922.587 124.354 913.202 106.502C903.976 88.9549 891.925 72.8984 877.545 58.9781C863.169 45.0578 846.59 33.3905 828.471 24.4584C810.024 15.3648 791.127 9.59766 770.823 6.06605C750.827 2.58789 730.429 1.43469 710.21 0.905543C700.927 0.662246 691.644 0.559691 682.358 0.504049C671.335 0.438588 660.311 0.444043 649.288 0.444043L521.297 0H425.57L299.844 0.444043C288.799 0.444043 277.754 0.438588 266.709 0.504049C257.405 0.559691 248.105 0.662246 238.803 0.905543C218.537 1.43469 198.093 2.58898 178.05 6.0715C157.719 9.60203 138.794 15.367 120.322 24.454C102.164 33.3873 85.5492 45.0557 71.1428 58.9781C56.7386 72.8973 44.6646 88.9505 35.4218 106.494C26.0113 124.355 20.0446 142.652 16.389 162.311C12.7896 181.673 11.597 201.421 11.0485 220.999C10.7985 229.987 10.6904 238.976 10.6341 247.966C10.5665 258.64 10 271.9 10 282.573L10.0034 402.683L10 496.412L10.5721 619.074C10.5721 629.761 10.5676 640.449 10.6341 651.137C10.6904 660.14 10.7985 669.14 11.0496 678.14C11.597 697.752 12.7919 717.536 16.3946 736.931C20.0491 756.605 26.0146 774.918 35.4173 792.793C44.6612 810.365 56.7375 826.442 71.1428 840.382C85.5481 854.322 102.158 866.004 120.313 874.95C138.796 884.055 157.73 889.83 178.074 893.366C198.108 896.85 218.545 898.005 238.803 898.534C248.105 898.777 257.406 898.881 266.711 898.936C277.755 899.001 288.799 898.997 299.844 898.997L426.706 899H522.671L649.288 898.996C660.311 898.996 671.335 899.001 682.358 898.936C691.644 898.881 700.927 898.777 710.21 898.534C730.437 898.004 750.841 896.847 770.846 893.362C791.138 889.826 810.026 884.053 828.463 874.953C846.586 866.009 863.168 854.324 877.545 840.382C891.922 826.444 903.973 810.369 913.199 792.801C922.589 774.917 928.544 756.595 932.193 736.908C935.786 717.52 936.977 697.745 937.523 678.14C937.775 669.139 937.882 660.139 937.937 651.137C938.005 640.449 938 629.761 938 619.074C938 619.074 937.993 498.578 937.993 496.412V402.585C937.993 400.985 938 279.985 938 279.985" fill="white"/>
</mask>
<g mask="url(#mask0_104_13)">
<rect width="928" height="899" transform="translate(10.3834 -0.25592)" fill="#1B1B1B"/>
<rect width="928" height="899" transform="translate(10.3834 -0.25592)" fill="url(#paint0_radial_104_13)"/>
<rect width="928" height="899" transform="translate(10.3834 -0.25592)" fill="url(#paint1_radial_104_13)"/>
<path d="M645.128 724.968C640.878 754.694 609.984 777.915 579.283 769.898C535.539 758.55 484.89 740.851 439.316 737.553C433.308 737.118 369.468 732.56 369.468 732.56C358.176 731.803 347.576 727.157 339.689 719.51L219.334 602.815C206.181 590.063 202.621 571.046 210.35 554.829C210.35 554.829 284.771 400.832 287.535 392.824C290.299 384.815 300.443 314.968 306.454 277.446C308.047 267.502 313.261 258.386 321.202 251.661L463.578 131.071C483.386 114.295 514.133 116.781 530.612 136.492L650.215 279.544C656.982 287.64 660.45 297.702 660.501 308.003C660.637 335.106 663.013 390.749 678.927 426.588C694.409 461.449 722.823 499.098 737.674 517.624C743.372 524.734 744.245 534.348 739.43 542.017C728.95 558.725 708.243 590.803 678.927 631.961C658.717 660.34 649.351 695.42 645.128 724.968Z" fill="#E35E31"/>
<path d="M352.657 728.331C408.55 621.481 406.991 544.932 383.207 490.302C361.319 440.03 320.608 408.321 288.52 388.642C287.844 391.485 286.865 394.26 285.596 396.925L210.347 554.829C202.618 571.047 206.179 590.064 219.332 602.815L339.686 719.51C343.462 723.171 347.86 726.144 352.657 728.331Z" fill="url(#paint2_radial_104_13)"/>
<path d="M579.297 769.882C609.992 777.899 640.881 754.678 645.131 724.952C648.791 699.361 656.304 669.616 671.382 643.673C636.787 573.551 594.953 537.187 549.092 521.069C500.548 504.009 447.492 509.634 393.735 521.927C405.753 573.425 398.559 640.682 352.72 728.321C357.94 730.701 363.632 732.15 369.512 732.545C369.512 732.545 402.589 735.168 441.926 737.789C481.263 740.411 539.801 759.568 579.297 769.882Z" fill="url(#paint3_radial_104_13)"/>
<path d="M504.762 511.458C519.866 512.944 534.669 516.009 549.077 521.071C594.946 537.189 636.79 573.555 671.39 643.671C673.716 639.668 676.224 635.755 678.927 631.961C708.241 590.803 728.948 558.725 739.429 542.017C744.243 534.348 743.37 524.734 737.67 517.624C722.821 499.098 694.408 461.449 678.927 426.588C663.011 390.749 660.636 335.106 660.5 308.003C660.448 297.702 656.98 287.64 650.213 279.544L530.61 136.491C529.972 135.726 529.309 134.988 528.629 134.275C537.404 161.357 536.81 183.142 531.396 202.947C526.377 221.307 517.214 237.964 507.536 255.558L507.534 255.561C504.288 261.462 500.985 267.468 497.759 273.681C484.918 298.414 473.325 326.403 471.615 363.934C469.904 401.468 478.075 448.543 504.766 511.456L504.762 511.458Z" fill="url(#paint4_radial_104_13)"/>
<path d="M504.746 511.456C478.057 448.545 469.883 401.468 471.594 363.933C473.305 326.398 484.899 298.409 497.741 273.675C500.967 267.461 504.272 261.454 507.518 255.552C517.195 237.957 526.357 221.302 531.376 202.944C536.79 183.134 537.385 161.343 528.601 134.25C511.728 116.616 482.601 114.954 463.572 131.071L321.196 251.661C313.255 258.386 308.041 267.502 306.448 277.446L289.116 385.635C288.955 386.639 288.756 387.636 288.521 388.627C320.61 408.306 361.328 440.019 383.218 490.297C387.493 500.118 391.051 510.643 393.686 521.93C431.492 513.284 468.954 507.938 504.746 511.456Z" fill="url(#paint5_radial_104_13)"/>
<path fill-rule="evenodd" clip-rule="evenodd" d="M471.873 361.461C470.157 398.694 475.092 441.404 501.725 504.185L493.362 503.475C469.467 437.961 464.268 404.371 466.008 366.623C467.749 328.858 480.707 299.817 493.622 275.045C496.892 268.772 504.524 256.991 507.789 251.077C517.459 233.568 523.894 224.319 529.42 208.315C537.142 185.953 535.471 175.362 534.591 164.821C540.721 202.924 517.451 236.056 499.859 269.801C487.044 294.384 473.587 324.246 471.873 361.461Z" fill="url(#paint6_radial_104_13)"/>
<path fill-rule="evenodd" clip-rule="evenodd" d="M391.082 493.07C394.241 499.949 397.225 505.503 399.108 514.013L392.129 515.49C389.225 505.553 386.982 498.483 382.963 489.959C358.913 436.53 320.316 409.048 288.774 388.89C326.873 408.191 365.977 438.402 391.082 493.07Z" fill="url(#paint7_radial_104_13)"/>
<path fill-rule="evenodd" clip-rule="evenodd" d="M399.514 520.735C412.841 579.133 397.974 653.322 354.161 725.439C390.782 653.968 408.535 585.323 393.75 521.9L399.514 520.735Z" fill="url(#paint8_radial_104_13)"/>
<path fill-rule="evenodd" clip-rule="evenodd" d="M550.731 515.482C622.564 540.796 650.223 596.377 670.897 642.741C645.364 594.191 609.866 540.574 548.153 520.672C501.197 505.529 461.54 507.324 393.745 521.813L392.234 515.482C464.184 500.046 501.802 498.24 550.731 515.482Z" fill="url(#paint9_radial_104_13)"/>
<g style="mix-blend-mode:screen" filter="url(#filter1_i_104_13)">
<path fill-rule="evenodd" clip-rule="evenodd" d="M938 279.985C938 269.313 938.004 258.639 937.937 247.966C937.882 238.975 937.775 229.986 937.522 220.999C936.977 201.412 935.785 181.657 932.189 162.289C928.542 142.64 922.587 124.354 913.202 106.502C903.976 88.9549 891.925 72.8984 877.545 58.9781C863.169 45.0578 846.59 33.3905 828.471 24.4584C810.024 15.3648 791.127 9.59766 770.823 6.06605C750.827 2.58789 730.429 1.43469 710.21 0.905543C700.927 0.662246 691.644 0.559691 682.358 0.504049C671.335 0.438588 660.311 0.444043 649.288 0.444043L521.297 0H425.57L299.844 0.444043C288.799 0.444043 277.754 0.438588 266.709 0.504049C257.405 0.559691 248.105 0.662246 238.803 0.905543C218.537 1.43469 198.093 2.58898 178.05 6.0715C157.719 9.60203 138.794 15.367 120.322 24.454C102.164 33.3873 85.5492 45.0557 71.1428 58.9781C56.7386 72.8973 44.6646 88.9505 35.4218 106.494C26.0113 124.355 20.0446 142.652 16.389 162.311C12.7896 181.673 11.597 201.421 11.0485 220.999C10.7985 229.987 10.6904 238.976 10.6341 247.966C10.5665 258.64 10 271.9 10 282.573L10.0034 402.683L10 496.412L10.5721 619.074C10.5721 629.761 10.5676 640.449 10.6341 651.137C10.6904 660.14 10.7985 669.14 11.0496 678.14C11.597 697.752 12.7919 717.536 16.3946 736.931C20.0491 756.605 26.0146 774.918 35.4173 792.793C44.6612 810.365 56.7375 826.442 71.1428 840.382C85.5481 854.322 102.158 866.004 120.313 874.95C138.796 884.055 157.73 889.83 178.074 893.366C198.108 896.85 218.545 898.005 238.803 898.534C248.105 898.777 257.406 898.881 266.711 898.936C277.755 899.001 288.799 898.997 299.844 898.997L426.706 899H522.671L649.288 898.996C660.311 898.996 671.335 899.001 682.358 898.936C691.644 898.881 700.927 898.777 710.21 898.534C730.437 898.004 750.841 896.847 770.846 893.362C791.138 889.826 810.026 884.053 828.463 874.953C846.586 866.009 863.168 854.324 877.545 840.382C891.922 826.444 903.973 810.369 913.199 792.801C922.589 774.917 928.544 756.595 932.193 736.908C935.786 717.52 936.977 697.745 937.523 678.14C937.775 669.139 937.882 660.139 937.937 651.137C938.005 640.449 938 629.761 938 619.074C938 619.074 937.993 498.578 937.993 496.412V402.585C937.993 400.985 938 279.985 938 279.985Z" fill="black"/>
</g>
</g>
<defs>
<filter id="filter0_d_104_13" x="0" y="0" width="948" height="919" filterUnits="userSpaceOnUse" color-interpolation-filters="sRGB">
<feFlood flood-opacity="0" result="BackgroundImageFix"/>
<feColorMatrix in="SourceAlpha" type="matrix" values="0 0 0 0 0 0 0 0 0 0 0 0 0 0 0 0 0 0 127 0" result="hardAlpha"/>
<feOffset dy="10"/>
<feGaussianBlur stdDeviation="5"/>
<feColorMatrix type="matrix" values="0 0 0 0 0 0 0 0 0 0 0 0 0 0 0 0 0 0 0.3 0"/>
<feBlend mode="normal" in2="BackgroundImageFix" result="effect1_dropShadow_104_13"/>
<feBlend mode="normal" in="SourceGraphic" in2="effect1_dropShadow_104_13" result="shape"/>
</filter>
<filter id="filter1_i_104_13" x="10" y="0" width="928" height="900" filterUnits="userSpaceOnUse" color-interpolation-filters="sRGB">
<feFlood flood-opacity="0" result="BackgroundImageFix"/>
<feBlend mode="normal" in="SourceGraphic" in2="BackgroundImageFix" result="shape"/>
<feColorMatrix in="SourceAlpha" type="matrix" values="0 0 0 0 0 0 0 0 0 0 0 0 0 0 0 0 0 0 127 0" result="hardAlpha"/>
<feOffset dy="6"/>
<feGaussianBlur stdDeviation="0.5"/>
<feComposite in2="hardAlpha" operator="arithmetic" k2="-1" k3="1"/>
<feColorMatrix type="matrix" values="0 0 0 0 1 0 0 0 0 1 0 0 0 0 1 0 0 0 0.07 0"/>
<feBlend mode="normal" in2="shape" result="effect1_innerShadow_104_13"/>
</filter>
<radialGradient id="paint0_radial_104_13" cx="0" cy="0" r="1" gradientUnits="userSpaceOnUse" gradientTransform="translate(464 563.813) rotate(90) scale(367.05 492.693)">
<stop stop-opacity="0.35"/>
<stop offset="1" stop-opacity="0"/>
</radialGradient>
<radialGradient id="paint1_radial_104_13" cx="0" cy="0" r="1" gradientUnits="userSpaceOnUse" gradientTransform="translate(464) rotate(90) scale(899 928)">
<stop stop-color="white" stop-opacity="0.05"/>
<stop offset="1" stop-color="white" stop-opacity="0"/>
</radialGradient>
<radialGradient id="paint2_radial_104_13" cx="0" cy="0" r="1" gradientUnits="userSpaceOnUse" gradientTransform="translate(346.646 717.783) rotate(-105.435) scale(297.662 208.961)">
<stop stop-color="white" stop-opacity="0.4"/>
<stop offset="1" stop-opacity="0.1"/>
</radialGradient>
<radialGradient id="paint3_radial_104_13" cx="0" cy="0" r="1" gradientUnits="userSpaceOnUse" gradientTransform="translate(581.578 771.482) rotate(-122.093) scale(244.846 289.005)">
<stop stop-color="white" stop-opacity="0.3"/>
<stop offset="1" stop-opacity="0.25"/>
</radialGradient>
<radialGradient id="paint4_radial_104_13" cx="0" cy="0" r="1" gradientUnits="userSpaceOnUse" gradientTransform="translate(614.979 595.882) rotate(-82.0248) scale(487.017 381.271)">
<stop stop-color="white" stop-opacity="0.55"/>
<stop offset="1" stop-color="white" stop-opacity="0.05"/>
</radialGradient>
<radialGradient id="paint5_radial_104_13" cx="0" cy="0" r="1" gradientUnits="userSpaceOnUse" gradientTransform="translate(365.512 510.472) rotate(-76.9858) scale(416.631 300.003)">
<stop stop-color="white" stop-opacity="0.83"/>
<stop offset="1" stop-color="white" stop-opacity="0.4"/>
</radialGradient>
<radialGradient id="paint6_radial_104_13" cx="0" cy="0" r="1" gradientUnits="userSpaceOnUse" gradientTransform="translate(547.407 282.829) rotate(102.969) scale(216.778 154.353)">
<stop stop-color="white" stop-opacity="0"/>
<stop offset="1" stop-color="white" stop-opacity="0.17"/>
</radialGradient>
<radialGradient id="paint7_radial_104_13" cx="0" cy="0" r="1" gradientUnits="userSpaceOnUse" gradientTransform="translate(278.472 399.906) rotate(43.6021) scale(164.228 349.397)">
<stop stop-color="white" stop-opacity="0.2"/>
<stop offset="1" stop-color="white" stop-opacity="0.44"/>
</radialGradient>
<radialGradient id="paint8_radial_104_13" cx="0" cy="0" r="1" gradientUnits="userSpaceOnUse" gradientTransform="translate(406.171 475.272) rotate(79.6073) scale(187.026 420.212)">
<stop stop-color="white" stop-opacity="0.25"/>
<stop offset="1" stop-color="white" stop-opacity="0.3"/>
</radialGradient>
<radialGradient id="paint9_radial_104_13" cx="0" cy="0" r="1" gradientUnits="userSpaceOnUse" gradientTransform="translate(669.036 627.695) rotate(-153.69) scale(298.36 906.331)">
<stop stop-color="white" stop-opacity="0.21"/>
<stop offset="0.46738" stop-color="white" stop-opacity="0.19"/>
<stop offset="1" stop-color="white" stop-opacity="0.29"/>
</radialGradient>
</defs>
</svg>
