<svg width="835" height="834" viewBox="0 0 835 834" fill="none" xmlns="http://www.w3.org/2000/svg">
<mask id="mask0_120_107" style="mask-type:luminance" maskUnits="userSpaceOnUse" x="0" y="0" width="832" height="832">
<path fill-rule="evenodd" clip-rule="evenodd" d="M832 259.119C832 249.242 832.004 239.364 831.943 229.486C831.894 221.165 831.798 212.846 831.572 204.529C831.083 186.402 830.014 168.119 826.79 150.194C823.52 132.01 818.181 115.086 809.767 98.5644C801.496 82.3253 790.691 67.4655 777.799 54.5826C764.91 41.6998 750.046 30.902 733.801 22.6356C717.262 14.2197 700.321 8.88238 682.117 5.61396C664.19 2.39502 645.902 1.32776 627.775 0.838055C619.452 0.612891 611.129 0.517979 602.804 0.466484C592.921 0.405901 583.038 0.41095 573.155 0.41095L458.404 0H372.58L259.86 0.41095C249.958 0.41095 240.055 0.405901 230.153 0.466484C221.811 0.517979 213.473 0.612891 205.134 0.838055C186.964 1.32776 168.635 2.39603 150.666 5.61901C132.437 8.88641 115.47 14.2217 98.9093 22.6315C82.6299 30.899 67.7338 41.6978 54.8177 54.5826C41.9036 67.4645 31.0786 82.3213 22.792 98.5573C14.3549 115.087 9.00553 132.021 5.72804 150.215C2.50103 168.133 1.43176 186.41 0.940032 204.529C0.715878 212.847 0.618947 221.166 0.568462 229.486C0.50788 239.365 0 251.636 0 261.514L0.0030291 372.672L0 459.416L0.512928 572.936C0.512928 582.827 0.508889 592.718 0.568462 602.609C0.618947 610.941 0.715878 619.271 0.941042 627.6C1.43176 645.751 2.50305 664.06 5.73308 682.009C9.00956 700.217 14.358 717.165 22.7879 733.708C31.0756 749.971 41.9026 764.85 54.8177 777.751C67.7328 790.652 82.6249 801.463 98.9012 809.742C115.472 818.169 132.448 823.513 150.687 826.786C168.648 830.01 186.971 831.079 205.134 831.569C213.473 831.794 221.812 831.89 230.154 831.94C240.056 832.001 249.958 831.997 259.86 831.997L373.599 832H459.636L573.155 831.996C583.038 831.996 592.921 832.001 602.804 831.94C611.129 831.89 619.452 831.794 627.775 831.569C645.909 831.078 664.203 830.008 682.138 826.782C700.331 823.509 717.264 818.167 733.794 809.745C750.042 801.468 764.909 790.654 777.799 777.751C790.689 764.852 801.493 749.975 809.764 733.715C818.183 717.164 823.522 700.208 826.794 681.988C830.015 664.046 831.083 645.744 831.573 627.6C831.798 619.27 831.894 610.94 831.943 602.609C832.005 592.718 832 582.827 832 572.936C832 572.936 831.994 461.42 831.994 459.416V372.581C831.994 371.101 832 259.119 832 259.119" fill="white"/>
</mask>
<g mask="url(#mask0_120_107)">
<g filter="url(#filter0_d_120_107)">
<path fill-rule="evenodd" clip-rule="evenodd" d="M815.344 239.119C815.344 229.242 815.348 219.364 815.287 209.486C815.238 201.165 815.142 192.846 814.916 184.529C814.427 166.402 813.358 148.119 810.134 130.194C806.864 112.01 801.525 95.0862 793.111 78.5644C784.84 62.3253 774.035 47.4655 761.143 34.5826C748.254 21.6998 733.39 10.902 717.145 2.63557C700.606 -5.78032 683.664 -11.1176 665.461 -14.386C647.533 -17.605 629.246 -18.6722 611.118 -19.1619C602.796 -19.3871 594.473 -19.482 586.148 -19.5335C576.265 -19.5941 566.382 -19.5891 556.499 -19.5891L441.748 -20H355.924L243.203 -19.5891C233.301 -19.5891 223.399 -19.5941 213.497 -19.5335C205.155 -19.482 196.817 -19.3871 188.478 -19.1619C170.308 -18.6722 151.979 -17.604 134.009 -14.381C115.781 -11.1136 98.8142 -5.77831 82.2531 2.63153C65.9737 10.899 51.0775 21.6978 38.1614 34.5826C25.2474 47.4645 14.4224 62.3213 6.13574 78.5573C-2.30133 95.0872 -7.65072 112.021 -10.9282 130.215C-14.1552 148.133 -15.2245 166.41 -15.7162 184.529C-15.9404 192.847 -16.0373 201.166 -16.0878 209.486C-16.1484 219.365 -16.6562 231.636 -16.6562 241.514L-16.6532 352.672L-16.6562 439.416L-16.1433 552.936C-16.1433 562.827 -16.1474 572.718 -16.0878 582.609C-16.0373 590.941 -15.9404 599.271 -15.7152 607.6C-15.2245 625.751 -14.1532 644.06 -10.9232 662.009C-7.64669 680.217 -2.2983 697.165 6.1317 713.708C14.4193 729.971 25.2464 744.85 38.1614 757.751C51.0765 770.652 65.9686 781.463 82.245 789.742C98.8162 798.169 115.791 803.513 134.031 806.786C151.992 810.01 170.315 811.079 188.478 811.569C196.817 811.794 205.156 811.89 213.498 811.94C223.4 812.001 233.301 811.997 243.203 811.997L356.942 812H442.98L556.499 811.996C566.382 811.996 576.265 812.001 586.148 811.94C594.473 811.89 602.796 811.794 611.118 811.569C629.253 811.078 647.546 810.008 665.482 806.782C683.675 803.509 700.608 798.167 717.138 789.745C733.386 781.468 748.253 770.654 761.143 757.751C774.033 744.852 784.837 729.975 793.108 713.715C801.527 697.164 806.866 680.208 810.138 661.988C813.359 644.046 814.427 625.744 814.917 607.6C815.142 599.27 815.238 590.94 815.287 582.609C815.349 572.718 815.344 562.827 815.344 552.936C815.344 552.936 815.338 441.42 815.338 439.416V352.581C815.338 351.101 815.344 239.119 815.344 239.119Z" fill="black"/>
</g>
<rect width="810" height="832" transform="translate(0.34375 -0.236816)" fill="#000D12"/>
<rect width="810" height="832" transform="translate(0.34375 -0.236816)" fill="url(#paint0_radial_120_107)"/>
<rect width="810" height="832" transform="translate(0.34375 -0.236816)" fill="url(#paint1_radial_120_107)"/>
<g opacity="0.88">
<path d="M528.495 610.529C525.447 633.278 503.287 651.05 481.265 644.915C449.888 636.23 413.557 622.684 380.867 620.16C376.557 619.827 330.765 616.339 330.765 616.339C322.665 615.76 315.062 612.204 309.405 606.352L223.075 517.042C213.64 507.283 211.087 492.729 216.63 480.317C216.63 480.317 270.012 362.46 271.995 356.331C272.193 355.718 272.444 354.634 272.739 353.148C275.402 339.768 281.684 293.877 285.565 268.029C286.708 260.419 290.448 253.443 296.144 248.295L398.27 156.006C411.923 143.668 432.82 144.943 444.921 158.445C445.413 158.994 445.891 159.564 446.353 160.154L532.144 269.635C536.998 275.831 539.486 283.532 539.522 291.416C539.62 312.158 541.324 354.743 552.739 382.172C563.845 408.851 584.226 437.665 594.878 451.843C598.965 457.285 599.592 464.643 596.138 470.512C588.621 483.299 573.768 507.849 552.739 539.349C550.8 542.254 549.001 545.25 547.33 548.316C536.511 568.174 531.12 590.94 528.495 610.529Z" fill="#2C2B30"/>
<g filter="url(#filter1_f_120_107)">
<path d="M514.718 618.919C511.766 641.825 490.314 659.718 468.995 653.54C438.618 644.796 403.447 631.158 371.801 628.617C367.628 628.281 323.298 624.769 323.298 624.769C315.456 624.186 308.096 620.606 302.619 614.713L219.044 524.792C209.91 514.967 207.438 500.313 212.805 487.816C212.805 487.816 264.483 369.152 266.403 362.981C268.322 356.81 275.366 302.988 279.54 274.075C280.646 266.413 284.267 259.389 289.781 254.206L388.648 161.285C402.403 148.357 423.754 150.273 435.197 165.461L518.25 275.692C522.949 281.931 525.357 289.684 525.392 297.622C525.487 318.506 527.137 361.383 538.188 388.999C548.939 415.861 568.67 444.872 578.982 459.147C582.939 464.626 583.545 472.035 580.202 477.944C572.924 490.818 558.545 515.537 538.188 547.252C524.154 569.119 517.65 596.151 514.718 618.919Z" fill="black" fill-opacity="0.29"/>
</g>
<path d="M515.525 615.092C512.576 638.101 491.145 656.076 469.847 649.87C439.501 641.086 404.364 627.386 372.749 624.833C368.581 624.497 324.294 620.969 324.294 620.969C316.46 620.383 309.107 616.786 303.635 610.867L220.143 520.538C211.018 510.668 208.548 495.947 213.91 483.394C213.91 483.394 265.537 364.191 267.455 357.992C269.372 351.793 276.409 297.727 280.579 268.683C281.685 260.986 285.302 253.93 290.81 248.724L389.579 155.381C403.321 142.395 424.651 144.319 436.082 159.576L519.053 270.307C523.748 276.574 526.154 284.362 526.189 292.336C526.284 313.315 527.932 356.387 538.972 384.128C549.712 411.112 569.423 440.255 579.726 454.595C583.678 460.099 584.284 467.541 580.944 473.477C573.674 486.41 559.309 511.24 538.972 543.099C524.951 565.066 518.454 592.22 515.525 615.092Z" fill="#BB0000" fill-opacity="0.89"/>
<path d="M312.632 617.697C351.406 534.988 350.324 475.735 333.825 433.447C318.641 394.534 290.399 369.989 268.139 354.756C267.67 356.956 266.99 359.105 266.11 361.168L213.908 483.396C208.547 495.949 211.017 510.67 220.141 520.54L303.634 610.87C306.253 613.703 309.304 616.004 312.632 617.697Z" fill="url(#paint2_radial_120_107)"/>
<path d="M469.858 649.861C491.152 656.067 512.58 638.092 515.528 615.082C518.067 595.273 523.279 572.248 533.739 552.167C509.74 497.888 480.719 469.74 448.904 457.264C415.228 444.058 378.422 448.412 341.13 457.928C349.466 497.791 344.476 549.852 312.677 617.69C316.298 619.532 320.246 620.654 324.326 620.959C324.326 620.959 347.272 622.99 374.561 625.019C401.85 627.048 442.459 641.878 469.858 649.861Z" fill="url(#paint3_radial_120_107)"/>
<path d="M418.152 449.821C428.63 450.971 438.899 453.344 448.894 457.262C480.714 469.739 509.742 497.888 533.745 552.161C535.358 549.063 537.099 546.034 538.974 543.098C559.309 511.239 573.674 486.408 580.945 473.476C584.285 467.539 583.679 460.097 579.725 454.593C569.424 440.254 549.713 411.111 538.974 384.127C527.932 356.385 526.284 313.314 526.191 292.335C526.154 284.361 523.748 276.573 519.054 270.306L436.083 159.575C435.64 158.983 435.181 158.411 434.708 157.859C440.796 178.822 440.384 195.685 436.628 211.016C433.146 225.227 426.79 238.121 420.076 251.74L420.075 251.742C417.823 256.309 415.532 260.959 413.293 265.768C404.386 284.913 396.343 306.578 395.157 335.629C393.97 364.682 399.638 401.121 418.154 449.82L418.152 449.821Z" fill="url(#paint4_radial_120_107)"/>
<path d="M418.139 449.822C399.625 401.125 393.954 364.684 395.141 335.63C396.328 306.576 404.371 284.911 413.28 265.764C415.518 260.954 417.81 256.305 420.062 251.736C426.775 238.117 433.131 225.224 436.613 211.014C440.369 195.681 440.781 178.813 434.688 157.841C422.983 144.191 402.777 142.905 389.576 155.381L290.807 248.724C285.298 253.93 281.681 260.986 280.575 268.683L268.552 352.429C268.44 353.205 268.303 353.978 268.139 354.745C290.401 369.977 318.647 394.525 333.833 433.443C336.799 441.045 339.267 449.193 341.095 457.929C367.322 451.237 393.309 447.098 418.139 449.822Z" fill="url(#paint5_radial_120_107)"/>
<path fill-rule="evenodd" clip-rule="evenodd" d="M395.334 333.718C394.144 362.539 397.568 395.599 416.044 444.196L410.242 443.646C393.666 392.934 390.059 366.933 391.266 337.714C392.474 308.481 401.463 286.002 410.422 266.827C412.691 261.971 417.985 252.852 420.25 248.274C426.958 234.721 431.423 227.562 435.256 215.174C440.613 197.864 439.454 189.666 438.843 181.507C443.096 211.001 426.953 236.647 414.749 262.768C405.859 281.796 396.524 304.912 395.334 333.718Z" fill="url(#paint6_radial_120_107)"/>
<path fill-rule="evenodd" clip-rule="evenodd" d="M339.29 435.592C341.482 440.916 343.552 445.215 344.858 451.802L340.017 452.946C338.002 445.254 336.446 439.782 333.658 433.183C316.974 391.826 290.198 370.553 268.317 354.95C294.747 369.89 321.874 393.275 339.29 435.592Z" fill="url(#paint7_radial_120_107)"/>
<path fill-rule="evenodd" clip-rule="evenodd" d="M345.14 457.005C354.385 502.209 344.071 559.636 313.678 615.459C339.082 560.136 351.398 507.001 341.141 457.907L345.14 457.005Z" fill="url(#paint8_radial_120_107)"/>
<path fill-rule="evenodd" clip-rule="evenodd" d="M450.04 452.937C499.873 472.531 519.06 515.554 533.402 551.443C515.689 513.862 491.064 472.36 448.253 456.955C415.677 445.232 388.167 446.622 341.136 457.837L340.088 452.937C390.001 440.988 416.098 439.591 450.04 452.937Z" fill="url(#paint9_radial_120_107)"/>
</g>
</g>
<defs>
<filter id="filter0_d_120_107" x="-26.6562" y="-20" width="852" height="852" filterUnits="userSpaceOnUse" color-interpolation-filters="sRGB">
<feFlood flood-opacity="0" result="BackgroundImageFix"/>
<feColorMatrix in="SourceAlpha" type="matrix" values="0 0 0 0 0 0 0 0 0 0 0 0 0 0 0 0 0 0 127 0" result="hardAlpha"/>
<feOffset dy="10"/>
<feGaussianBlur stdDeviation="5"/>
<feColorMatrix type="matrix" values="0 0 0 0 0 0 0 0 0 0 0 0 0 0 0 0 0 0 0.3 0"/>
<feBlend mode="normal" in2="BackgroundImageFix" result="effect1_dropShadow_120_107"/>
<feBlend mode="normal" in="SourceGraphic" in2="effect1_dropShadow_120_107" result="shape"/>
</filter>
<filter id="filter1_f_120_107" x="197" y="139.706" width="398.372" height="528.067" filterUnits="userSpaceOnUse" color-interpolation-filters="sRGB">
<feFlood flood-opacity="0" result="BackgroundImageFix"/>
<feBlend mode="normal" in="SourceGraphic" in2="BackgroundImageFix" result="shape"/>
<feGaussianBlur stdDeviation="6.5" result="effect1_foregroundBlur_120_107"/>
</filter>
<radialGradient id="paint0_radial_120_107" cx="0" cy="0" r="1" gradientUnits="userSpaceOnUse" gradientTransform="translate(405 521.793) rotate(90) scale(339.695 430.044)">
<stop stop-opacity="0.35"/>
<stop offset="1" stop-opacity="0"/>
</radialGradient>
<radialGradient id="paint1_radial_120_107" cx="0" cy="0" r="1" gradientUnits="userSpaceOnUse" gradientTransform="translate(405) rotate(90) scale(832 810)">
<stop stop-color="white" stop-opacity="0.05"/>
<stop offset="1" stop-color="white" stop-opacity="0"/>
</radialGradient>
<radialGradient id="paint2_radial_120_107" cx="0" cy="0" r="1" gradientTransform="matrix(-54.9586 -222.099 140.863 -38.4817 308.462 609.533)" gradientUnits="userSpaceOnUse">
<stop stop-color="white" stop-opacity="0.4"/>
<stop offset="1" stop-opacity="0.1"/>
</radialGradient>
<radialGradient id="paint3_radial_120_107" cx="0" cy="0" r="1" gradientTransform="matrix(-78.8809 -170.414 186.216 -95.187 460.078 660.949)" gradientUnits="userSpaceOnUse">
<stop stop-color="white" stop-opacity="0.3"/>
<stop offset="1" stop-opacity="0.25"/>
</radialGradient>
<radialGradient id="paint4_radial_120_107" cx="0" cy="0" r="1" gradientTransform="matrix(46.8755 -373.333 262.51 36.388 494.612 515.17)" gradientUnits="userSpaceOnUse">
<stop stop-color="white" stop-opacity="0.55"/>
<stop offset="1" stop-color="white" stop-opacity="0.05"/>
</radialGradient>
<radialGradient id="paint5_radial_120_107" cx="0" cy="0" r="1" gradientTransform="matrix(65.0863 -314.214 203.945 46.6382 321.55 449.06)" gradientUnits="userSpaceOnUse">
<stop stop-color="white" stop-opacity="0.83"/>
<stop offset="1" stop-color="white" stop-opacity="0.4"/>
</radialGradient>
<radialGradient id="paint6_radial_120_107" cx="0" cy="0" r="1" gradientTransform="matrix(-33.7499 163.519 -104.945 -23.9131 447.734 272.852)" gradientUnits="userSpaceOnUse">
<stop stop-color="#712929" stop-opacity="0.62"/>
<stop offset="0.418269" stop-color="#C30202"/>
</radialGradient>
<radialGradient id="paint7_radial_120_107" cx="0" cy="0" r="1" gradientTransform="matrix(82.5009 87.6698 -177.716 184.63 261.17 363.477)" gradientUnits="userSpaceOnUse">
<stop stop-color="white" stop-opacity="0.2"/>
<stop offset="1" stop-color="white" stop-opacity="0.44"/>
</radialGradient>
<radialGradient id="paint8_radial_120_107" cx="0" cy="0" r="1" gradientTransform="matrix(23.405 142.395 -287.788 52.2223 349.758 421.814)" gradientUnits="userSpaceOnUse">
<stop stop-color="white" stop-opacity="0.12"/>
<stop offset="1" stop-color="white" stop-opacity="0.35"/>
</radialGradient>
<radialGradient id="paint9_radial_120_107" cx="0" cy="0" r="1" gradientTransform="matrix(-185.538 -102.364 306.586 -613.484 532.111 539.797)" gradientUnits="userSpaceOnUse">
<stop stop-color="white" stop-opacity="0.21"/>
<stop offset="0.46738" stop-color="white" stop-opacity="0.19"/>
<stop offset="1" stop-color="white" stop-opacity="0.29"/>
</radialGradient>
</defs>
</svg>
