<svg width="323" height="413" viewBox="0 0 323 413" fill="none" xmlns="http://www.w3.org/2000/svg">
<path d="M260.103 378.124C257.642 396.407 239.753 410.689 221.975 405.758C196.644 398.779 167.315 387.893 140.925 385.864C137.446 385.597 100.478 382.794 100.478 382.794C93.9393 382.328 87.8017 379.47 83.2347 374.767L13.5416 302.994C5.9252 295.151 3.86355 283.454 8.33901 273.48C8.33901 273.48 51.4334 178.764 53.0339 173.838C53.1938 173.346 53.3964 172.474 53.635 171.281C55.7843 160.527 60.8561 123.647 63.9892 102.875C64.9119 96.7588 67.931 91.1523 72.5293 87.0157L154.974 12.8472C165.996 2.93236 182.866 3.9565 192.634 14.8075C193.032 15.249 193.418 15.7069 193.791 16.1809L263.048 104.165C266.967 109.145 268.975 115.333 269.005 121.669C269.084 138.339 270.459 172.562 279.675 194.605C288.64 216.046 305.093 239.203 313.693 250.597C316.992 254.97 317.498 260.883 314.71 265.6C308.641 275.876 296.65 295.606 279.675 320.92C278.109 323.255 276.656 325.663 275.308 328.127C266.574 344.085 262.221 362.381 260.103 378.124Z" fill="#2C2B30"/>
<path d="M90.6474 380.398C152.948 254.089 92.4293 196.56 53.635 171.281M114.665 253.194C175.21 238.49 234.073 239.345 275.308 328.127M178.712 246.522C119.858 99.1763 216.59 93.309 192.634 14.8075M275.308 328.127C276.656 325.663 278.109 323.255 279.675 320.92C296.65 295.606 308.641 275.876 314.71 265.6C317.498 260.883 316.992 254.97 313.693 250.597C305.093 239.203 288.64 216.046 279.675 194.605C270.459 172.562 269.084 138.339 269.005 121.669C268.975 115.333 266.967 109.145 263.048 104.165L193.791 16.1809C193.418 15.7069 193.032 15.249 192.634 14.8075M275.308 328.127C266.574 344.085 262.221 362.381 260.103 378.124C257.642 396.407 239.753 410.689 221.975 405.758C196.644 398.779 167.315 387.893 140.925 385.864C137.446 385.597 100.478 382.794 100.478 382.794C93.9393 382.328 87.8017 379.47 83.2347 374.767L13.5416 302.994C5.9252 295.151 3.86355 283.454 8.33901 273.48C8.33901 273.48 51.4334 178.764 53.0339 173.838C53.1938 173.346 53.3964 172.474 53.635 171.281M192.634 14.8075C182.866 3.9565 165.996 2.93236 154.974 12.8472L72.5293 87.0157C67.931 91.1523 64.9119 96.7588 63.9892 102.875C60.8561 123.647 55.7843 160.527 53.635 171.281" stroke="white" stroke-width="12"/>
</svg>
